ply
format ascii 1.0
comment this file is a revolution surface
element vertex 80
property float x
property float y
property float z
element face 144
property list uint8 int32 vertex_index
end_header
0.841471 0.000000 0.000000
0.586258 0.000000 0.603634
-0.024571 0.000000 0.841112
-0.620495 0.000000 0.568383
-0.840036 0.000000 -0.049120
-0.550022 0.000000 -0.636827
0.073628 0.000000 -0.838244
0.652616 0.000000 -0.531192
0.838752 0.100000 0.000000
0.584364 0.100000 0.601684
-0.024491 0.100000 0.838394
-0.618491 0.100000 0.566546
-0.837322 0.100000 -0.048961
-0.548245 0.100000 -0.634770
0.073390 0.100000 -0.835535
0.650508 0.100000 -0.529476
0.830384 0.200000 0.000000
0.578534 0.200000 0.595681
-0.024247 0.200000 0.830030
-0.612320 0.200000 0.560894
-0.828968 0.200000 -0.048473
-0.542775 0.200000 -0.628436
0.072658 0.200000 -0.827199
0.644017 0.200000 -0.524193
0.815701 0.300000 0.000000
0.568304 0.300000 0.585148
-0.023818 0.300000 0.815353
-0.601493 0.300000 0.550976
-0.814310 0.300000 -0.047616
-0.533177 0.300000 -0.617324
0.071373 0.300000 -0.812572
0.632630 0.300000 -0.514924
0.793486 0.400000 0.000000
0.552827 0.400000 0.569212
-0.023169 0.400000 0.793147
-0.585111 0.400000 0.535970
-0.792132 0.400000 -0.046319
-0.518657 0.400000 -0.600512
0.069429 0.400000 -0.790442
0.615400 0.400000 -0.500901
0.761760 0.500000 0.000000
0.530723 0.500000 0.546453
-0.022243 0.500000 0.761435
-0.561717 0.500000 0.514541
-0.760461 0.500000 -0.044467
-0.497920 0.500000 -0.576502
0.066653 0.500000 -0.758838
0.590795 0.500000 -0.480873
0.717356 0.600000 0.000000
0.499787 0.600000 0.514600
-0.020946 0.600000 0.717050
-0.528974 0.600000 0.484548
-0.716133 0.600000 -0.041875
-0.468895 0.600000 -0.542897
0.062768 0.600000 -0.714605
0.556357 0.600000 -0.452843
0.654970 0.700000 0.000000
0.456322 0.700000 0.469847
-0.019125 0.700000 0.654691
-0.482971 0.700000 0.442408
-0.653853 0.700000 -0.038233
-0.428117 0.700000 -0.495683
0.057309 0.700000 -0.652458
0.507972 0.700000 -0.413460
0.564642 0.800000 0.000000
0.393390 0.800000 0.405050
-0.016487 0.800000 0.564402
-0.416364 0.800000 0.381395
-0.563680 0.800000 -0.032961
-0.369075 0.800000 -0.427323
0.049406 0.800000 -0.562477
0.437917 0.800000 -0.356440
0.422217 0.900000 0.000000
0.294161 0.900000 0.302880
-0.012329 0.900000 0.422037
-0.311340 0.900000 0.285192
-0.421497 0.900000 -0.024647
-0.275979 0.900000 -0.319535
0.036944 0.900000 -0.420598
0.327457 0.900000 -0.266531
3 0 8 1
3 1 8 9
3 1 10 2
3 1 9 10
3 2 10 3
3 3 10 11
3 3 12 4
3 3 11 12
3 4 12 5
3 5 12 13
3 5 14 6
3 5 13 14
3 6 14 7
3 7 14 15
3 7 8 0
3 7 15 8
3 8 17 9
3 8 16 17
3 9 17 10
3 10 17 18
3 10 19 11
3 10 18 19
3 11 19 12
3 12 19 20
3 12 21 13
3 12 20 21
3 13 21 14
3 14 21 22
3 14 23 15
3 14 22 23
3 15 23 8
3 8 23 16
3 16 24 17
3 17 24 25
3 17 26 18
3 17 25 26
3 18 26 19
3 19 26 27
3 19 28 20
3 19 27 28
3 20 28 21
3 21 28 29
3 21 30 22
3 21 29 30
3 22 30 23
3 23 30 31
3 23 24 16
3 23 31 24
3 24 33 25
3 24 32 33
3 25 33 26
3 26 33 34
3 26 35 27
3 26 34 35
3 27 35 28
3 28 35 36
3 28 37 29
3 28 36 37
3 29 37 30
3 30 37 38
3 30 39 31
3 30 38 39
3 31 39 24
3 24 39 32
3 32 40 33
3 33 40 41
3 33 42 34
3 33 41 42
3 34 42 35
3 35 42 43
3 35 44 36
3 35 43 44
3 36 44 37
3 37 44 45
3 37 46 38
3 37 45 46
3 38 46 39
3 39 46 47
3 39 40 32
3 39 47 40
3 40 49 41
3 40 48 49
3 41 49 42
3 42 49 50
3 42 51 43
3 42 50 51
3 43 51 44
3 44 51 52
3 44 53 45
3 44 52 53
3 45 53 46
3 46 53 54
3 46 55 47
3 46 54 55
3 47 55 40
3 40 55 48
3 48 56 49
3 49 56 57
3 49 58 50
3 49 57 58
3 50 58 51
3 51 58 59
3 51 60 52
3 51 59 60
3 52 60 53
3 53 60 61
3 53 62 54
3 53 61 62
3 54 62 55
3 55 62 63
3 55 56 48
3 55 63 56
3 56 65 57
3 56 64 65
3 57 65 58
3 58 65 66
3 58 67 59
3 58 66 67
3 59 67 60
3 60 67 68
3 60 69 61
3 60 68 69
3 61 69 62
3 62 69 70
3 62 71 63
3 62 70 71
3 63 71 56
3 56 71 64
3 64 72 65
3 65 72 73
3 65 74 66
3 65 73 74
3 66 74 67
3 67 74 75
3 67 76 68
3 67 75 76
3 68 76 69
3 69 76 77
3 69 78 70
3 69 77 78
3 70 78 71
3 71 78 79
3 71 72 64
3 71 79 72
