ply
format ascii 1.0
comment this file is a revolution surface
element vertex 80
property float x
property float y
property float z
element face 144
property list uint8 int32 vertex_index
end_header
0.841471 0.000000 0.000000
0.586258 0.000000 0.603634
-0.024571 0.000000 0.841112
-0.620495 0.000000 0.568383
-0.840036 0.000000 -0.049120
-0.550022 0.000000 -0.636827
0.073628 0.000000 -0.838244
0.652616 0.000000 -0.531192
0.812649 0.100000 0.000000
0.566178 0.100000 0.582959
-0.023729 0.100000 0.812302
-0.599242 0.100000 0.548914
-0.811263 0.100000 -0.047438
-0.531183 0.100000 -0.615015
0.071106 0.100000 -0.809532
0.630263 0.100000 -0.512998
0.779851 0.200000 0.000000
0.543327 0.200000 0.559431
-0.022771 0.200000 0.779518
-0.575057 0.200000 0.526760
-0.778521 0.200000 -0.045523
-0.509744 0.200000 -0.590193
0.068236 0.200000 -0.776860
0.604826 0.200000 -0.492293
0.742410 0.300000 0.000000
0.517242 0.300000 0.532572
-0.021678 0.300000 0.742093
-0.547448 0.300000 0.501470
-0.741144 0.300000 -0.043338
-0.485271 0.300000 -0.561857
0.064960 0.300000 -0.739562
0.575788 0.300000 -0.468658
0.699428 0.400000 0.000000
0.487296 0.400000 0.501739
-0.020423 0.400000 0.699130
-0.515754 0.400000 0.472438
-0.698235 0.400000 -0.040829
-0.457177 0.400000 -0.529329
0.061199 0.400000 -0.696745
0.542453 0.400000 -0.441525
0.649637 0.500000 0.000000
0.452606 0.500000 0.466021
-0.018969 0.500000 0.649360
-0.479038 0.500000 0.438806
-0.648529 0.500000 -0.037922
-0.424631 0.500000 -0.491647
0.056843 0.500000 -0.647145
0.503836 0.500000 -0.410094
0.591127 0.600000 0.000000
0.411842 0.600000 0.424049
-0.017261 0.600000 0.590875
-0.435893 0.600000 0.399285
-0.590119 0.600000 -0.034507
-0.386386 0.600000 -0.447366
0.051723 0.600000 -0.588860
0.458458 0.600000 -0.373159
0.520744 0.700000 0.000000
0.362806 0.700000 0.373559
-0.015205 0.700000 0.520522
-0.383994 0.700000 0.351744
-0.519856 0.700000 -0.030398
-0.340381 0.700000 -0.394101
0.045565 0.700000 -0.518747
0.403872 0.700000 -0.328728
0.432455 0.800000 0.000000
0.301294 0.800000 0.310224
-0.012627 0.800000 0.432270
-0.318889 0.800000 0.292107
-0.431717 0.800000 -0.025244
-0.282671 0.800000 -0.327283
0.037839 0.800000 -0.430796
0.335397 0.800000 -0.272994
0.310983 0.900000 0.000000
0.216664 0.900000 0.223086
-0.009081 0.900000 0.310851
-0.229317 0.900000 0.210058
-0.310453 0.900000 -0.018153
-0.203272 0.900000 -0.235353
0.027211 0.900000 -0.309791
0.241188 0.900000 -0.196313
3 0 8 1
3 1 8 9
3 1 10 2
3 1 9 10
3 2 10 3
3 3 10 11
3 3 12 4
3 3 11 12
3 4 12 5
3 5 12 13
3 5 14 6
3 5 13 14
3 6 14 7
3 7 14 15
3 7 8 0
3 7 15 8
3 8 17 9
3 8 16 17
3 9 17 10
3 10 17 18
3 10 19 11
3 10 18 19
3 11 19 12
3 12 19 20
3 12 21 13
3 12 20 21
3 13 21 14
3 14 21 22
3 14 23 15
3 14 22 23
3 15 23 8
3 8 23 16
3 16 24 17
3 17 24 25
3 17 26 18
3 17 25 26
3 18 26 19
3 19 26 27
3 19 28 20
3 19 27 28
3 20 28 21
3 21 28 29
3 21 30 22
3 21 29 30
3 22 30 23
3 23 30 31
3 23 24 16
3 23 31 24
3 24 33 25
3 24 32 33
3 25 33 26
3 26 33 34
3 26 35 27
3 26 34 35
3 27 35 28
3 28 35 36
3 28 37 29
3 28 36 37
3 29 37 30
3 30 37 38
3 30 39 31
3 30 38 39
3 31 39 24
3 24 39 32
3 32 40 33
3 33 40 41
3 33 42 34
3 33 41 42
3 34 42 35
3 35 42 43
3 35 44 36
3 35 43 44
3 36 44 37
3 37 44 45
3 37 46 38
3 37 45 46
3 38 46 39
3 39 46 47
3 39 40 32
3 39 47 40
3 40 49 41
3 40 48 49
3 41 49 42
3 42 49 50
3 42 51 43
3 42 50 51
3 43 51 44
3 44 51 52
3 44 53 45
3 44 52 53
3 45 53 46
3 46 53 54
3 46 55 47
3 46 54 55
3 47 55 40
3 40 55 48
3 48 56 49
3 49 56 57
3 49 58 50
3 49 57 58
3 50 58 51
3 51 58 59
3 51 60 52
3 51 59 60
3 52 60 53
3 53 60 61
3 53 62 54
3 53 61 62
3 54 62 55
3 55 62 63
3 55 56 48
3 55 63 56
3 56 65 57
3 56 64 65
3 57 65 58
3 58 65 66
3 58 67 59
3 58 66 67
3 59 67 60
3 60 67 68
3 60 69 61
3 60 68 69
3 61 69 62
3 62 69 70
3 62 71 63
3 62 70 71
3 63 71 56
3 56 71 64
3 64 72 65
3 65 72 73
3 65 74 66
3 65 73 74
3 66 74 67
3 67 74 75
3 67 76 68
3 67 75 76
3 68 76 69
3 69 76 77
3 69 78 70
3 69 77 78
3 70 78 71
3 71 78 79
3 71 72 64
3 71 79 72
