ply
format ascii 1.0
comment this file is a revolution surface
element vertex 112
property float x
property float y
property float z
element face 210
property list uint8 int32 vertex_index
end_header
1.000000 0.000000 0.000000
0.540302 0.000000 0.841471
-0.416147 0.000000 0.909297
-0.989992 0.000000 0.141120
-0.653644 0.000000 -0.756802
0.283662 0.000000 -0.958924
0.960170 0.000000 -0.279415
0.995004 0.100000 0.000000
0.537603 0.100000 0.837267
-0.414068 0.100000 0.904755
-0.985047 0.100000 0.140415
-0.650378 0.100000 -0.753022
0.282245 0.100000 -0.954134
0.955373 0.100000 -0.278020
0.980067 0.200000 0.000000
0.529532 0.200000 0.824698
-0.407852 0.200000 0.891172
-0.970259 0.200000 0.138307
-0.640614 0.200000 -0.741717
0.278008 0.200000 -0.939810
0.941031 0.200000 -0.273846
0.955337 0.300000 0.000000
0.516171 0.300000 0.803888
-0.397560 0.300000 0.868685
-0.945776 0.300000 0.134817
-0.624450 0.300000 -0.723001
0.270993 0.300000 -0.916095
0.917286 0.300000 -0.266936
0.921061 0.400000 0.000000
0.497651 0.400000 0.775046
-0.383297 0.400000 0.837518
-0.911843 0.400000 0.129980
-0.602046 0.400000 -0.697061
0.261270 0.400000 -0.883228
0.884375 0.400000 -0.257359
0.877583 0.500000 0.000000
0.474160 0.500000 0.738460
-0.365203 0.500000 0.797984
-0.868800 0.500000 0.123844
-0.573626 0.500000 -0.664157
0.248937 0.500000 -0.841535
0.842629 0.500000 -0.245210
0.825336 0.600000 0.000000
0.445931 0.600000 0.694496
-0.343461 0.600000 0.750476
-0.817076 0.600000 0.116471
-0.539475 0.600000 -0.624616
0.234117 0.600000 -0.791434
0.792463 0.600000 -0.230612
0.764842 0.700000 0.000000
0.413246 0.700000 0.643592
-0.318287 0.700000 0.695469
-0.757188 0.700000 0.107935
-0.499934 0.700000 -0.578834
0.216957 0.700000 -0.733426
0.734379 0.700000 -0.213709
0.696707 0.800000 0.000000
0.376432 0.800000 0.586258
-0.289932 0.800000 0.633514
-0.689734 0.800000 0.098319
-0.455398 0.800000 -0.527269
0.197629 0.800000 -0.668089
0.668957 0.800000 -0.194671
0.621610 0.900000 0.000000
0.335857 0.900000 0.523067
-0.258681 0.900000 0.565228
-0.615389 0.900000 0.087722
-0.406311 0.900000 -0.470436
0.176327 0.900000 -0.596077
0.596851 0.900000 -0.173687
0.540302 1.000000 0.000000
0.291927 1.000000 0.454649
-0.224845 1.000000 0.491295
-0.534895 1.000000 0.076247
-0.353165 1.000000 -0.408902
0.153263 1.000000 -0.518109
0.518782 1.000000 -0.150969
0.453596 1.100000 0.000000
0.245079 1.100000 0.381688
-0.188763 1.100000 0.412454
-0.449057 1.100000 0.064011
-0.296490 1.100000 -0.343283
0.128668 1.100000 -0.434964
0.435529 1.100000 -0.126742
0.362358 1.200000 0.000000
0.195783 1.200000 0.304913
-0.150794 1.200000 0.329491
-0.358731 1.200000 0.051136
-0.236853 1.200000 -0.274233
0.102787 1.200000 -0.347474
0.347925 1.200000 -0.101248
0.267499 1.300000 0.000000
0.144530 1.300000 0.225092
-0.111319 1.300000 0.243236
-0.264822 1.300000 0.037749
-0.174849 1.300000 -0.202444
0.075879 1.300000 -0.256511
0.256844 1.300000 -0.074743
0.169967 1.400000 0.000000
0.091834 1.400000 0.143022
-0.070731 1.400000 0.154550
-0.168266 1.400000 0.023986
-0.111098 1.400000 -0.128631
0.048213 1.400000 -0.162985
0.163197 1.400000 -0.047491
0.070737 1.500000 0.000000
0.038219 1.500000 0.059523
-0.029437 1.500000 0.064321
-0.070029 1.500000 0.009982
-0.046237 1.500000 -0.053534
0.020065 1.500000 -0.067831
0.067920 1.500000 -0.019765
3 0 7 1
3 1 7 8
3 1 9 2
3 1 8 9
3 2 9 3
3 3 9 10
3 3 11 4
3 3 10 11
3 4 11 5
3 5 11 12
3 5 13 6
3 5 12 13
3 6 13 0
3 0 13 7
3 7 15 8
3 7 14 15
3 8 15 9
3 9 15 16
3 9 17 10
3 9 16 17
3 10 17 11
3 11 17 18
3 11 19 12
3 11 18 19
3 12 19 13
3 13 19 20
3 13 14 7
3 13 20 14
3 14 21 15
3 15 21 22
3 15 23 16
3 15 22 23
3 16 23 17
3 17 23 24
3 17 25 18
3 17 24 25
3 18 25 19
3 19 25 26
3 19 27 20
3 19 26 27
3 20 27 14
3 14 27 21
3 21 29 22
3 21 28 29
3 22 29 23
3 23 29 30
3 23 31 24
3 23 30 31
3 24 31 25
3 25 31 32
3 25 33 26
3 25 32 33
3 26 33 27
3 27 33 34
3 27 28 21
3 27 34 28
3 28 35 29
3 29 35 36
3 29 37 30
3 29 36 37
3 30 37 31
3 31 37 38
3 31 39 32
3 31 38 39
3 32 39 33
3 33 39 40
3 33 41 34
3 33 40 41
3 34 41 28
3 28 41 35
3 35 43 36
3 35 42 43
3 36 43 37
3 37 43 44
3 37 45 38
3 37 44 45
3 38 45 39
3 39 45 46
3 39 47 40
3 39 46 47
3 40 47 41
3 41 47 48
3 41 42 35
3 41 48 42
3 42 49 43
3 43 49 50
3 43 51 44
3 43 50 51
3 44 51 45
3 45 51 52
3 45 53 46
3 45 52 53
3 46 53 47
3 47 53 54
3 47 55 48
3 47 54 55
3 48 55 42
3 42 55 49
3 49 57 50
3 49 56 57
3 50 57 51
3 51 57 58
3 51 59 52
3 51 58 59
3 52 59 53
3 53 59 60
3 53 61 54
3 53 60 61
3 54 61 55
3 55 61 62
3 55 56 49
3 55 62 56
3 56 63 57
3 57 63 64
3 57 65 58
3 57 64 65
3 58 65 59
3 59 65 66
3 59 67 60
3 59 66 67
3 60 67 61
3 61 67 68
3 61 69 62
3 61 68 69
3 62 69 56
3 56 69 63
3 63 71 64
3 63 70 71
3 64 71 65
3 65 71 72
3 65 73 66
3 65 72 73
3 66 73 67
3 67 73 74
3 67 75 68
3 67 74 75
3 68 75 69
3 69 75 76
3 69 70 63
3 69 76 70
3 70 77 71
3 71 77 78
3 71 79 72
3 71 78 79
3 72 79 73
3 73 79 80
3 73 81 74
3 73 80 81
3 74 81 75
3 75 81 82
3 75 83 76
3 75 82 83
3 76 83 70
3 70 83 77
3 77 85 78
3 77 84 85
3 78 85 79
3 79 85 86
3 79 87 80
3 79 86 87
3 80 87 81
3 81 87 88
3 81 89 82
3 81 88 89
3 82 89 83
3 83 89 90
3 83 84 77
3 83 90 84
3 84 91 85
3 85 91 92
3 85 93 86
3 85 92 93
3 86 93 87
3 87 93 94
3 87 95 88
3 87 94 95
3 88 95 89
3 89 95 96
3 89 97 90
3 89 96 97
3 90 97 84
3 84 97 91
3 91 99 92
3 91 98 99
3 92 99 93
3 93 99 100
3 93 101 94
3 93 100 101
3 94 101 95
3 95 101 102
3 95 103 96
3 95 102 103
3 96 103 97
3 97 103 104
3 97 98 91
3 97 104 98
3 98 105 99
3 99 105 106
3 99 107 100
3 99 106 107
3 100 107 101
3 101 107 108
3 101 109 102
3 101 108 109
3 102 109 103
3 103 109 110
3 103 111 104
3 103 110 111
3 104 111 98
3 98 111 105
